<?xml version="1.0" standalone="no"?>
<!DOCTYPE svg PUBLIC "-//W3C//DTD SVG 20010904//EN"
 "http://www.w3.org/TR/2001/REC-SVG-20010904/DTD/svg10.dtd">
<svg version="1.0" xmlns="http://www.w3.org/2000/svg"
 width="500.000000pt" height="500.000000pt" viewBox="0 0 500.000000 500.000000"
 preserveAspectRatio="xMidYMid meet">

<g transform="translate(0.000000,500.000000) scale(0.100000,-0.100000)"
fill="#000000" stroke="none">
<path d="M1758 4221 c-84 -5 -100 -9 -123 -31 -15 -14 -31 -35 -36 -48 -5 -12
-9 -311 -9 -663 l-1 -641 -22 23 c-26 28 -26 39 0 18 16 -13 17 -12 4 4 -7 9
-20 17 -27 17 -8 0 -14 5 -14 12 0 20 -31 47 -48 41 -10 -4 -13 -2 -8 5 5 8 1
10 -10 5 -10 -4 -15 -2 -11 3 3 5 -10 14 -29 20 -29 10 -37 9 -47 -5 -28 -38
-94 -48 -166 -25 -19 5 -22 4 -16 -6 6 -10 4 -12 -7 -8 -20 8 -82 -47 -72 -64
4 -7 4 -10 -1 -6 -4 4 -14 0 -21 -10 -16 -20 -18 -36 -5 -27 5 3 13 0 17 -6 5
-8 3 -9 -6 -4 -10 6 -12 4 -6 -10 5 -15 4 -16 -9 -5 -13 10 -15 9 -15 -9 0
-11 -5 -21 -12 -21 -6 0 -9 -3 -5 -6 3 -4 -1 -13 -9 -22 -9 -8 -14 -25 -11
-38 3 -17 0 -21 -12 -16 -14 5 -14 4 -2 -11 12 -15 12 -17 -1 -12 -22 9 -43
-42 -26 -64 11 -14 11 -14 -4 -3 -11 9 -18 9 -23 3 -8 -15 -53 -10 -59 6 -3 7
-12 13 -20 13 -8 0 -18 5 -22 12 -5 7 -2 9 7 4 8 -4 3 1 -11 13 -25 20 -25 20
-55 1 -41 -27 -29 -77 20 -84 11 -2 21 -9 23 -17 2 -8 0 -10 -5 -4 -4 6 -15
11 -23 13 -10 1 -7 -4 7 -17 12 -10 20 -21 17 -23 -12 -13 84 -66 111 -61 11
2 28 4 37 5 18 2 19 18 3 30 -6 5 -5 8 3 8 7 0 15 -7 18 -15 5 -12 10 -13 20
-4 8 6 11 16 7 22 -3 5 -1 7 5 3 6 -3 13 -2 17 4 10 16 28 12 21 -5 -3 -10 -1
-15 7 -13 7 2 12 -1 12 -7 0 -5 -6 -9 -12 -9 -9 1 -13 -16 -13 -56 0 -32 -3
-66 -6 -74 -5 -12 -2 -15 12 -10 18 6 18 6 2 -7 -13 -11 -16 -29 -15 -81 1
-36 -1 -64 -4 -62 -4 2 -7 -31 -7 -74 0 -42 -3 -96 -7 -119 -6 -41 -3 -47 25
-45 3 0 4 -129 2 -286 -4 -358 17 -547 81 -742 24 -70 33 -77 92 -66 31 6 34
10 39 54 3 26 10 189 16 362 10 328 16 400 29 400 14 0 21 -39 31 -195 13
-180 30 -288 72 -458 38 -157 54 -174 131 -142 15 6 17 1 17 -36 0 -48 22 -89
61 -117 22 -16 91 -17 829 -20 752 -2 807 -1 839 15 19 10 44 31 55 46 20 27
21 44 24 314 3 292 2 302 -34 303 -7 0 -13 -85 -18 -267 -7 -297 -8 -300 -77
-335 -31 -17 -89 -18 -779 -18 -704 0 -747 1 -780 18 -73 39 -70 7 -69 772 2
671 7 761 27 428 2 -26 5 -28 41 -28 22 0 43 5 47 11 4 7 8 123 10 258 3 239
-5 339 -28 325 -5 -3 -7 -12 -5 -18 3 -7 -1 -13 -8 -13 -10 0 -11 5 -4 19 5
10 7 24 3 30 -4 6 -3 8 4 5 6 -5 8 0 5 13 -3 11 -10 17 -16 13 -6 -3 -7 -1 -3
5 4 6 -3 34 -15 62 -19 43 -24 49 -37 38 -14 -11 -14 -10 -4 7 9 17 6 25 -16
49 -15 16 -21 26 -14 22 9 -6 12 124 12 636 0 604 1 645 18 677 10 19 34 43
53 53 32 17 76 18 779 18 690 0 748 -1 779 -18 19 -9 44 -30 55 -45 21 -28 21
-40 24 -614 l4 -585 -28 -62 c-29 -63 -39 -158 -21 -201 7 -16 14 -6 37 57 35
94 85 190 113 216 12 11 45 27 74 36 67 22 75 44 34 91 -16 19 -33 50 -37 70
-5 31 -2 40 32 78 46 52 57 58 114 69 25 4 57 17 73 29 l27 20 28 -32 c38 -46
43 -62 32 -121 -12 -64 -50 -129 -85 -148 -15 -8 -24 -19 -20 -28 3 -7 5 -17
5 -22 0 -4 14 -13 30 -20 47 -19 80 -49 80 -71 0 -11 4 -17 10 -14 5 3 18 2
27 -4 35 -18 75 36 47 64 -20 20 -45 180 -48 315 -3 122 -26 184 -83 227 -64
49 -188 44 -250 -10 -60 -53 -77 -104 -80 -240 -2 -108 -5 -123 -30 -169 l-28
-51 -5 574 c-5 543 -6 576 -24 602 -42 62 -11 60 -801 62 -396 2 -764 0 -817
-4z m-244 -1289 c2 -4 -4 -8 -14 -8 -10 0 -16 4 -14 8 3 4 9 8 14 8 5 0 11 -4
14 -8z m-501 -303 c-8 -8 -13 -7 -18 2 -6 8 -4 10 5 4 10 -6 12 -4 6 11 -6 15
-5 17 5 7 9 -10 10 -16 2 -24z m-183 -4 c-15 -18 1 -20 19 -2 11 10 11 8 0 -9
-7 -12 -20 -21 -28 -19 -18 3 -16 26 2 37 18 12 21 9 7 -7z m45 -57 c2 -20 1
-20 -11 -3 -7 10 -11 22 -8 27 8 13 17 2 19 -24z m708 -18 c-3 -11 -1 -20 4
-20 9 0 7 -110 -3 -140 -8 -24 -24 10 -18 40 3 14 1 51 -4 82 -6 40 -6 59 2
61 18 7 24 -2 19 -23z m-43 -49 c0 -6 -4 -12 -8 -15 -5 -3 -9 1 -9 9 0 8 4 15
9 15 4 0 8 -4 8 -9z m-554 -13 c4 -7 4 -10 -1 -6 -4 4 -13 4 -19 -2 -7 -5 -17
-5 -26 2 -12 8 -12 9 2 4 10 -3 20 -1 23 4 8 13 12 13 21 -2z m128 -124 c3 -8
2 -12 -4 -9 -6 3 -10 10 -10 16 0 14 7 11 14 -7z m533 -36 c-3 -8 -6 -5 -6 6
-1 11 2 17 5 13 3 -3 4 -12 1 -19z m6 -53 c-3 -9 -8 -14 -10 -11 -3 3 -2 9 2
15 9 16 15 13 8 -4z m-548 -163 c-3 -3 -11 0 -18 7 -9 10 -8 11 6 5 10 -3 15
-9 12 -12z"/>
<path d="M2257 4084 c-4 -4 -7 -16 -7 -26 0 -17 11 -21 55 -21 11 0 114 1 228
2 l208 1 -3 23 -3 22 -236 3 c-129 1 -238 -1 -242 -4z"/>
<path d="M1890 3232 c0 -7 -7 -9 -17 -5 -12 5 -15 2 -10 -10 4 -11 2 -14 -8
-11 -7 3 -18 -4 -24 -15 -10 -18 -9 -20 6 -15 10 2 8 -1 -4 -7 -22 -11 -23
-18 -22 -113 0 -99 15 -174 33 -168 5 2 13 -3 18 -12 5 -9 21 -15 42 -14 42 1
56 -7 51 -32 -2 -11 1 -20 6 -20 6 0 7 -6 3 -12 -4 -7 5 -2 19 11 15 13 24 28
21 33 -3 5 -2 8 3 7 20 -5 41 13 35 29 -5 15 -4 15 12 -1 16 -16 48 -17 428
-17 350 1 409 3 404 15 -7 18 10 29 20 14 5 -8 3 -9 -6 -4 -9 6 -11 4 -5 -4
14 -23 44 21 51 73 4 29 3 47 -2 43 -5 -3 -8 34 -6 88 3 86 -9 147 -25 131 -3
-3 0 -14 8 -23 13 -16 12 -17 -3 -4 -10 7 -18 20 -18 28 0 8 -4 11 -10 8 -5
-3 -10 -1 -10 4 0 8 -150 11 -486 11 -385 0 -484 -3 -478 -12 5 -9 2 -9 -9 1
-11 8 -17 9 -17 3z m588 -91 c3 -8 -83 -11 -277 -11 -247 0 -294 4 -277 21 10
10 551 0 554 -10z m385 -3 c9 -10 13 -18 9 -18 -4 0 -13 5 -20 12 -7 7 -12 8
-12 2 0 -6 5 -15 11 -21 7 -7 6 -12 -4 -16 -9 -3 -14 1 -13 11 1 15 -14 17
-114 20 -63 1 -122 5 -130 9 -8 3 -19 5 -23 4 -5 -1 -6 2 -4 6 3 5 67 8 144 8
118 0 141 -3 156 -17z m-889 -40 c-5 -8 -1 -9 12 -4 14 5 16 4 7 -5 -6 -6 -16
-8 -22 -5 -14 9 -14 26 0 26 5 0 7 -5 3 -12z m701 -28 c-3 -5 -12 -10 -18 -10
-7 0 -6 4 3 10 19 12 23 12 15 0z m-407 -15 c17 -6 15 -25 -3 -25 -8 0 -15 -6
-16 -12 0 -10 -2 -10 -6 0 -6 15 -159 17 -168 2 -3 -5 -11 -10 -16 -10 -6 0
-7 5 -4 11 4 6 1 10 -6 8 -33 -4 -39 1 -28 19 9 15 25 17 122 14 62 -2 118 -5
125 -7z m337 -18 c14 -14 14 -17 3 -8 -10 8 -18 10 -18 5 0 -5 -47 -7 -105 -6
-71 3 -105 0 -105 -7 0 -6 -5 -11 -11 -11 -5 0 -7 5 -4 11 5 7 -3 9 -22 6 -21
-3 -30 -1 -30 9 0 8 4 14 9 14 5 0 7 3 5 8 -3 4 54 6 126 4 119 -3 134 -5 152
-25z m233 24 c-6 -2 0 -10 13 -18 13 -8 16 -12 7 -9 -10 3 -18 2 -18 -2 0 -5
-30 -6 -66 -4 -48 3 -65 1 -60 -7 5 -8 0 -8 -19 -1 -15 6 -31 8 -36 4 -5 -3
-9 0 -9 5 0 6 -3 10 -7 10 -17 -3 -24 2 -18 11 5 8 11 8 19 1 9 -8 18 -7 30 2
10 7 49 12 96 12 44 0 75 -2 68 -4z m-8 -69 c0 -8 -1 -13 -3 -11 -1 2 -9 12
-16 22 -12 15 -12 17 3 11 9 -3 16 -13 16 -22z m-575 -42 c0 -11 -311 -17
-322 -6 -17 16 22 21 164 19 108 -1 158 -5 158 -13z m85 12 c0 -5 -7 -9 -15
-9 -8 0 -12 4 -9 9 3 4 9 8 15 8 5 0 9 -4 9 -8z m510 0 c-6 -2 -8 -8 -4 -13 3
-5 0 -9 -5 -9 -6 0 -110 0 -231 0 -121 0 -230 0 -241 0 -16 0 -19 3 -11 13 8
9 72 12 256 12 135 0 242 -2 236 -3z m-558 -17 c0 -5 -5 -10 -11 -11 -8 -2 -7
-1 0 3 8 4 7 8 -2 15 -11 8 -11 9 -1 6 8 -2 14 -8 14 -13z m-372 -61 c0 -2 -9
0 -20 6 -11 6 -20 13 -20 16 0 2 9 0 20 -6 11 -6 20 -13 20 -16z m40 6 c0 -5
-2 -10 -4 -10 -3 0 -8 5 -11 10 -3 6 -1 10 4 10 6 0 11 -4 11 -10z m24 -46 c3
-8 2 -12 -4 -9 -6 3 -10 10 -10 16 0 14 7 11 14 -7z"/>
<path d="M668 2939 c-10 -5 -18 -18 -18 -28 0 -17 104 -161 116 -161 18 0 44
24 44 41 0 19 -1 19 -16 5 -8 -9 -22 -16 -30 -16 -18 0 -105 111 -102 130 2 8
19 20 38 27 30 10 31 12 10 12 -14 0 -33 -4 -42 -10z"/>
<path d="M3827 2780 c-6 -24 16 -50 44 -50 26 0 24 12 -10 44 -27 26 -29 27
-34 6z"/>
<path d="M3830 2598 c0 -72 11 -87 38 -53 l21 27 -26 39 c-14 21 -27 39 -29
39 -2 0 -4 -24 -4 -52z"/>
<path d="M3421 2553 c-7 -18 -10 -41 -6 -50 6 -17 7 -17 16 0 6 9 9 32 7 50
l-3 32 -14 -32z"/>
<path d="M3387 2473 c-22 -34 -42 -253 -37 -408 l5 -160 23 175 c22 169 28
423 9 393z"/>
<path d="M1860 2358 c0 -5 -6 -6 -12 -2 -7 4 -10 4 -6 -1 4 -4 1 -13 -8 -19
-11 -8 -17 -37 -21 -99 -5 -72 -3 -91 12 -113 11 -18 13 -24 4 -19 -8 4 -5 -2
7 -14 20 -21 38 -29 77 -30 12 -1 17 -9 17 -32 0 -19 4 -28 11 -24 6 4 8 14 5
22 -4 8 -1 11 5 8 6 -4 16 0 22 9 11 14 56 16 368 17 195 0 362 5 370 10 8 5
10 9 5 9 -6 0 -1 6 10 14 16 12 20 29 23 106 2 62 0 90 -7 86 -6 -3 -14 -2
-17 4 -4 6 -1 9 6 8 6 -2 14 3 17 11 3 8 0 11 -7 7 -7 -4 -9 -2 -5 7 3 9 -4
22 -16 30 -19 13 -80 16 -407 17 -300 0 -389 -2 -401 -12 -9 -7 -13 -8 -9 -2
4 7 -2 12 -18 12 -14 0 -25 -5 -25 -10z m404 -37 c-2 -3 -12 3 -22 13 -16 17
-16 18 5 5 12 -7 20 -15 17 -18z m56 6 c0 -2 -8 -3 -18 -3 -10 0 -19 6 -19 13
0 8 6 9 19 2 10 -5 18 -11 18 -12z m-387 -20 c85 7 297 8 297 1 0 -4 1 -11 3
-15 3 -9 -26 -12 -166 -14 -115 -1 -156 -8 -127 -22 6 -3 5 -4 -2 -2 -7 1 -12
8 -10 14 2 11 -8 14 -38 12 -9 0 -10 2 -3 5 7 3 11 11 9 17 -1 7 -1 10 1 7 2
-3 18 -5 36 -3z m694 -13 c3 -18 2 -18 -6 1 -8 17 -10 18 -10 3 -1 -18 -19
-22 -86 -19 -23 2 -27 0 -15 -8 9 -7 10 -11 3 -11 -6 0 -15 5 -18 10 -9 14
-128 13 -143 -2 -9 -9 -15 -9 -24 0 -7 7 -20 12 -31 12 -10 0 -17 5 -15 13 3
8 46 13 149 17 198 7 194 7 196 -16z m-777 2 c0 -2 -7 -7 -16 -10 -8 -3 -12
-2 -9 4 6 10 25 14 25 6z m326 -65 c98 0 187 0 198 0 24 0 32 -9 19 -22 -17
-17 -389 -13 -414 5 -15 10 -17 15 -7 19 7 2 16 3 19 1 3 -2 87 -3 185 -3z
m339 -1 c-3 -5 -1 -10 4 -10 6 0 11 5 11 11 0 6 8 8 18 5 9 -3 43 -6 74 -7 47
-2 56 -5 47 -16 -15 -17 -140 -18 -157 -1 -15 15 -15 28 -1 28 5 0 7 -4 4 -10z
m-625 -44 c0 -2 -7 -7 -16 -10 -8 -3 -12 -2 -9 4 6 10 25 14 25 6z m326 -4
c-3 -5 8 -9 24 -9 18 0 27 4 23 11 -4 6 0 5 9 -1 8 -7 18 -11 21 -8 4 3 4 2 1
-2 -8 -12 -104 -11 -111 0 -3 6 -1 7 5 3 6 -3 13 -2 17 4 3 5 8 10 11 10 3 0
3 -4 0 -8z m475 -36 c-17 -10 -20 -15 -10 -18 8 -3 -79 -6 -192 -7 -160 -1
-208 1 -212 11 -3 10 35 12 190 10 113 -1 202 2 211 8 10 5 22 9 27 9 6 0 -1
-6 -14 -13z m-488 -13 c-4 -9 -44 -13 -146 -15 -105 -2 -141 -6 -140 -15 2 -7
-4 -10 -13 -6 -12 4 -12 8 -4 13 7 4 10 13 6 19 -6 9 76 14 280 17 14 0 20 -5
17 -13z m524 -29 c-3 -3 -12 -4 -19 -1 -8 3 -5 6 6 6 11 1 17 -2 13 -5z"/>
<path d="M3752 1377 l-84 -11 5 -35 c57 -382 72 -474 82 -488 15 -21 80 -10
90 15 4 9 10 133 12 275 5 216 4 257 -8 255 -8 -1 -52 -6 -97 -11z"/>
<path d="M3445 1123 c4 -136 8 -254 10 -260 3 -8 22 -13 49 -13 l44 0 16 68
c18 80 70 431 65 436 -2 2 -46 6 -97 10 l-94 7 7 -248z"/>
<path d="M3193 946 c-9 -11 -8 -18 3 -32 9 -11 13 -13 9 -6 -7 14 19 44 30 34
5 -4 5 -1 1 6 -9 16 -28 15 -43 -2z"/>
<path d="M3534 715 c-28 -26 -60 -26 -76 -1 -5 6 -8 3 -8 -9 0 -34 20 -45 85
-45 71 0 107 8 102 23 -2 6 -20 21 -40 34 l-36 23 -27 -25z"/>
<path d="M3850 709 c-19 -23 -31 -29 -52 -26 -22 3 -28 -1 -28 -15 0 -14 8
-18 40 -18 57 0 140 20 140 33 0 10 -29 32 -70 54 -3 2 -16 -11 -30 -28z"/>
<path d="M1181 693 c-20 -8 -51 -36 -51 -46 0 -4 35 -7 78 -5 76 3 77 3 80 31
3 26 2 27 -17 15 -17 -10 -25 -10 -41 0 -21 13 -27 14 -49 5z"/>
<path d="M1485 693 c-30 -8 -65 -34 -59 -44 8 -14 138 -11 152 3 22 22 14 38
-17 32 -16 -4 -32 -1 -35 5 -8 12 -9 12 -41 4z"/>
</g>
</svg>
